Coordinates
version=1
nRows=9
nColumns=60
inDegrees=yes

Units are S.I. units (second, meters, Newtons, ...)
If the header above contains a line with 'inDegrees', this indicates whether rotational values are in degrees (yes) or radians (no).

endheader
time	pelvis_tilt	pelvis_list	pelvis_rotation	pelvis_tx	pelvis_ty	pelvis_tz	hip_flexion_r	hip_adduction_r	hip_rotation_r	knee_angle_r_beta	knee_angle_r	ankle_angle_r	subtalar_angle_r	mtp_angle_r	hip_flexion_l	hip_adduction_l	hip_rotation_l	knee_angle_l_beta	knee_angle_l	ankle_angle_l	subtalar_angle_l	mtp_angle_l	L5_S1_Flex_Ext	L5_S1_Lat_Bending	L5_S1_axial_rotation	L4_L5_Flex_Ext	L4_L5_Lat_Bending	L4_L5_axial_rotation	L3_L4_Flex_Ext	L3_L4_Lat_Bending	L3_L4_axial_rotation	L2_L3_Flex_Ext	L2_L3_Lat_Bending	L2_L3_axial_rotation	L1_L2_Flex_Ext	L1_L2_Lat_Bending	L1_L2_axial_rotation	L1_T12_Flex_Ext	L1_T12_Lat_Bending	L1_T12_axial_rotation	Abs_r3	Abs_r2	Abs_r1	Abs_t1	Abs_t2	arm_flex_r	arm_add_r	arm_rot_r	elbow_flex_r	pro_sup_r	wrist_flex_r	wrist_dev_r	arm_flex_l	arm_add_l	arm_rot_l	elbow_flex_l	pro_sup_l	wrist_flex_l	wrist_dev_l
      8.62000000	      1.15504511	      5.72849869	     92.70402420	      0.40263354	      0.93810396	      0.29564143	      4.50978120	     -3.72966725	      0.46066288	      0.25161297	    -14.41636114	      6.60515692	      0.00000000	      0.00000000	      5.16415416	     -6.77908220	      0.84761568	      0.22700102	    -13.00620016	      7.19339574	      0.00000000	      0.00000000	     -6.55880949	      0.24657811	     -0.22393983	    -12.18036510	      0.32794888	     -0.23793607	    -10.77546811	      0.59953001	     -0.23793607	     -7.49606337	      0.59953001	     -0.19594735	     -6.09051049	      0.50282207	     -0.18195111	     -3.74770374	      0.38194949	     -0.16795487	    -46.84892030	      2.78934086	     -1.24548617	      0.00000000	      0.00000000	     40.55188627	    -25.37217223	      5.64011448	     86.96211309	     62.83261464	      3.16748562	     24.79328654	     40.48175608	    -24.46117571	      8.37333720	     84.21031727	     58.24182728	      4.57783040	     18.21275077
      8.63000000	      1.14086268	      6.08599291	     92.68967779	      0.40243647	      0.93859127	      0.29406178	      4.03395652	     -3.73167923	      0.55675962	      0.25278353	    -14.48342958	      6.62942895	      0.00000000	      0.00000000	      4.66731333	     -6.78158078	      0.84980365	      0.22750357	    -13.03499430	      7.25230710	      0.00000000	      0.00000000	     -6.57365667	      0.23858698	     -0.24498575	    -12.20793780	      0.31732068	     -0.26029736	    -10.79986054	      0.58010037	     -0.26029736	     -7.51303221	      0.58010037	     -0.21436253	     -6.10429758	      0.48652656	     -0.19905092	     -3.75618742	      0.36957123	     -0.18373931	    -46.95497221	      2.69894359	     -1.36253725	      0.00000000	      0.00000000	     38.73642308	    -25.26348284	      5.02026007	     88.15009761	     62.99452909	      3.05333238	     24.78134566	     38.33544199	    -24.26583171	      7.24648990	     85.65793194	     58.63091064	      4.37144727	     18.26616608
      8.64000000	      1.09596131	      6.34891514	     92.68625125	      0.40222002	      0.93892633	      0.29242407	      3.61163175	     -3.78700318	      0.44121712	      0.25179243	    -14.42664365	      6.76444515	      0.00000000	      0.00000000	      4.21068895	     -6.74917008	      0.69822643	      0.22581733	    -12.93838011	      7.45559596	      0.00000000	      0.00000000	     -6.55343457	      0.22822156	     -0.25359884	    -12.17038334	      0.30353467	     -0.26944876	    -10.76663765	      0.55489789	     -0.26944876	     -7.48992037	      0.55489789	     -0.22189898	     -6.08551934	      0.46538940	     -0.20604905	     -3.74463251	      0.35351519	     -0.19019913	    -46.81052777	      2.58168789	     -1.41044065	      0.00000000	      0.00000000	     36.97278880	    -25.31136126	      4.73010557	     88.82520963	     63.08970874	      2.98197200	     24.79914421	     36.45364591	    -24.13034159	      6.67648074	     86.54490701	     58.84109456	      4.24430607	     18.32619816
      8.65000000	      1.06819561	      6.63550482	     92.67181800	      0.40198478	      0.93925854	      0.29091919	      3.18624337	     -3.81316582	      0.36041833	      0.25156147	    -14.41341047	      6.88900031	      0.00000000	      0.00000000	      3.74733916	     -6.72249496	      0.59414254	      0.22443681	    -12.85928204	      7.61239205	      0.00000000	      0.00000000	     -6.54294327	      0.21599901	     -0.26381204	    -12.15089995	      0.28727868	     -0.28030030	    -10.74940150	      0.52517999	     -0.28030030	     -7.47792986	      0.52517999	     -0.23083554	     -6.07577712	      0.44046518	     -0.21434729	     -3.73863778	      0.33458247	     -0.19785903	    -46.73558948	      2.44342400	     -1.46724344	      0.00000000	      0.00000000	     35.27729076	    -25.34816335	      4.36286352	     89.57239036	     63.19004509	      2.90827064	     24.80813629	     34.59992740	    -23.96250085	      6.10137395	     87.50697053	     59.04144336	      4.11592939	     18.38735434
      8.66000000	      1.04355239	      6.93254081	     92.67378063	      0.40174044	      0.93962318	      0.28957885	      2.77869741	     -3.83576267	      0.30260613	      0.25187441	    -14.43134040	      6.99156819	      0.00000000	      0.00000000	      3.29022278	     -6.70707666	      0.51786173	      0.22336166	    -12.79768038	      7.72978448	      0.00000000	      0.00000000	     -6.53763635	      0.20738579	     -0.27497315	    -12.14104446	      0.27582310	     -0.29215897	    -10.74068275	      0.50423780	     -0.29215897	     -7.47186458	      0.50423780	     -0.24060151	     -6.07084911	      0.42290110	     -0.22341569	     -3.73560541	      0.32124059	     -0.20622986	    -46.69768265	      2.34598951	     -1.52931818	      0.00000000	      0.00000000	     33.66860597	    -25.38552364	      4.07957242	     90.17504774	     63.29344045	      2.83758824	     24.82731895	     32.89764387	    -23.88099943	      5.67290749	     88.27334911	     59.22050891	      3.98857428	     18.46550790
      8.67000000	      1.01901900	      7.22036200	     92.67377647	      0.40146647	      0.93998571	      0.28837072	      2.38655591	     -3.86717610	      0.24300937	      0.25211528	    -14.44514124	      7.09450150	      0.00000000	      0.00000000	      2.84396634	     -6.68541989	      0.45209878	      0.22193611	    -12.71600222	      7.83491607	      0.00000000	      0.00000000	     -6.53659426	      0.20023334	     -0.28461597	    -12.13910920	      0.26631034	     -0.30240446	    -10.73897071	      0.48684733	     -0.30240446	     -7.47067358	      0.48684733	     -0.24903897	     -6.06988143	      0.40831582	     -0.23125047	     -3.73500996	      0.31016144	     -0.21346197	    -46.69023915	      2.26507955	     -1.58294861	      0.00000000	      0.00000000	     32.14054461	    -25.40938371	      3.79057159	     90.76434278	     63.42004105	      2.76041829	     24.84828599	     31.27179334	    -23.81230495	      5.32066541	     88.99625935	     59.41131244	      3.84020931	     18.56233510
      8.68000000	      1.01933745	      7.55319574	     92.68959804	      0.40117930	      0.94040298	      0.28749009	      2.02117531	     -3.85426830	      0.32019809	      0.25464328	    -14.58998533	      7.06622489	      0.00000000	      0.00000000	      2.46892798	     -6.68799880	      0.51844175	      0.22411382	    -12.84077576	      7.81104958	      0.00000000	      0.00000000	     -6.52000981	      0.19929676	     -0.29279689	    -12.10831021	      0.26506469	     -0.31109669	    -10.71172411	      0.48457014	     -0.31109669	     -7.45171921	      0.48457014	     -0.25619728	     -6.05448111	      0.40640595	     -0.23789747	     -3.72553360	      0.30871068	     -0.21959767	    -46.57177804	      2.25448481	     -1.62844846	      0.00000000	      0.00000000	     30.98049412	    -25.47376286	      3.92125484	     90.65941278	     63.43558987	      2.74275020	     24.89224783	     30.05713039	    -23.81200997	      5.49357895	     88.90023010	     59.43005163	      3.80763088	     18.61802468
      8.69000000	      0.98259119	      7.65619806	     92.69903965	      0.40089336	      0.94046727	      0.28632422	      1.74218210	     -3.92165815	      0.04152982	      0.25120536	    -14.39300718	      7.30809719	      0.00000000	      0.00000000	      2.11222057	     -6.64851113	      0.28171075	      0.21825811	    -12.50526865	      8.07544971	      0.00000000	      0.00000000	     -6.51062539	      0.19193244	     -0.29360117	    -12.09088241	      0.25527014	     -0.31195125	    -10.69630645	      0.46666453	     -0.31195125	     -7.44099376	      0.46666453	     -0.25690103	     -6.04576674	      0.39138863	     -0.23855095	     -3.72017135	      0.29730335	     -0.22020088	    -46.50474611	      2.17117814	     -1.63292165	      0.00000000	      0.00000000	     29.29183212	    -25.53360711	      3.45369547	     91.47337048	     63.57029765	      2.67158611	     24.88661566	     28.40562720	    -23.79236377	      5.12500365	     89.88224632	     59.61902236	      3.65403391	     18.66733154
      8.70000000	      0.94674254	      7.90782616	     92.73086212	      0.40060750	      0.94076685	      0.28555270	      1.40366271	     -3.95990132	      0.03699145	      0.25139861	    -14.40407944	      7.39329913	      0.00000000	      0.00000000	      1.73769042	     -6.61069294	      0.32223705	      0.21691379	    -12.42824455	      8.12101238	      0.00000000	      0.00000000	     -6.52654907	      0.18837876	     -0.30006442	    -12.12045429	      0.25054375	     -0.31881844	    -10.72246747	      0.45802412	     -0.31881844	     -7.45919294	      0.45802412	     -0.26255637	     -6.06055347	      0.38414197	     -0.24380234	     -3.72927014	      0.29179870	     -0.22504831	    -46.61848739	      2.13097821	     -1.66886827	      0.00000000	      0.00000000	     27.90294440	    -25.50331073	      3.06195047	     92.04767354	     63.74374151	      2.59305173	     24.88456394	     27.04073456	    -23.77032613	      4.93505116	     90.45886536	     59.86505909	      3.45467742	     18.73454906
